# xmcd
#
# Track frame offsets:
#  150
#  16619
#  38000
#  60748
#  85848
#  110541
#  137820
#  155953
#  182677
#  203200
#
# Disc length: 2773 seconds
#
# Revision: 2
# Processed by: cddbd v1.5.1PL2 Copyright (c) Steve Scherf et al.
# Submitted via: Collectorz.com_Music_Collector 6.11
#
DISCID=810ad30a
DTITLE=Zac Harmon - The Blues According To Zacariah
DYEAR=2004
DGENRE=Blues
TTITLE0=That Mighty High
TTITLE1=Sugarman
TTITLE2=Who's Knockin
TTITLE3=Its Cool With Me
TTITLE4=That's Why
TTITLE5=Mannish Boy
TTITLE6=It Hurts Me Too
TTITLE7=Comfort Of A Man T
TTITLE8=A Hole In My Heart
TTITLE9=Glory
EXTD=
EXTT0=
EXTT1=
EXTT2=
EXTT3=
EXTT4=
EXTT5=
EXTT6=
EXTT7=
EXTT8=
EXTT9=
PLAYORDER=
